<svg fill="#0d141a" viewBox="0 0 120.612 20.079" height="100%" width="100%" xmlns="http://www.w3.org/2000/svg"><path preserveAspectRatio="none" d="M8.81 16.65L8.81 16.65Q6.92 16.65 5.30 16.03Q3.68 15.41 2.50 14.28Q1.31 13.16 0.66 11.64Q0 10.12 0 8.33L0 8.33Q0 6.53 0.66 5.01Q1.31 3.50 2.51 2.37Q3.70 1.24 5.31 0.62Q6.92 0 8.81 0L8.81 0Q10.72 0 12.32 0.62Q13.91 1.24 15.10 2.36Q16.28 3.47 16.95 4.99Q17.62 6.51 17.62 8.33L17.62 8.33Q17.62 10.12 16.95 11.65Q16.28 13.18 15.10 14.29Q13.91 15.41 12.32 16.03Q10.72 16.65 8.81 16.65ZM14.08 20.08L14.08 20.08Q13.13 20.08 12.29 19.87Q11.45 19.67 10.64 19.21Q9.82 18.75 8.94 17.96Q8.05 17.18 7.01 16.03L7.01 16.03L10.92 15.04Q11.55 15.89 12.07 16.40Q12.60 16.91 13.10 17.11Q13.59 17.32 14.14 17.32L14.14 17.32Q15.62 17.32 16.77 16.12L16.77 16.12L18.42 18.10Q16.79 20.08 14.08 20.08ZM8.81 13.48L8.81 13.48Q9.89 13.48 10.80 13.11Q11.71 12.74 12.40 12.05Q13.09 11.36 13.47 10.41Q13.85 9.45 13.85 8.33L13.85 8.33Q13.85 7.18 13.47 6.23Q13.09 5.29 12.40 4.60Q11.71 3.91 10.80 3.54Q9.89 3.17 8.81 3.17L8.81 3.17Q7.73 3.17 6.81 3.54Q5.89 3.91 5.21 4.60Q4.53 5.29 4.15 6.23Q3.77 7.18 3.77 8.33L3.77 8.33Q3.77 9.45 4.15 10.41Q4.53 11.36 5.21 12.05Q5.89 12.74 6.81 13.11Q7.73 13.48 8.81 13.48ZM27.58 16.65L27.58 16.65Q24.15 16.65 22.22 14.74Q20.29 12.83 20.29 9.29L20.29 9.29L20.29 0.28L24.01 0.28L24.01 9.15Q24.01 11.45 24.95 12.47Q25.90 13.48 27.60 13.48L27.60 13.48Q29.30 13.48 30.25 12.47Q31.19 11.45 31.19 9.15L31.19 9.15L31.19 0.28L34.87 0.28L34.87 9.29Q34.87 12.83 32.94 14.74Q31.00 16.65 27.58 16.65ZM51.01 16.38L38.55 16.38L38.55 0.28L50.71 0.28L50.71 3.27L42.25 3.27L42.25 13.39L51.01 13.39L51.01 16.38ZM49.73 9.66L41.97 9.66L41.97 6.76L49.73 6.76L49.73 9.66ZM66.45 16.38L53.98 16.38L53.98 0.28L66.15 0.28L66.15 3.27L57.68 3.27L57.68 13.39L66.45 13.39L66.45 16.38ZM65.16 9.66L57.41 9.66L57.41 6.76L65.16 6.76L65.16 9.66ZM73.09 16.38L69.41 16.38L69.41 0.28L72.50 0.28L81.99 11.87L80.50 11.87L80.50 0.28L84.18 0.28L84.18 16.38L81.12 16.38L71.60 4.78L73.09 4.78L73.09 16.38ZM93.79 11.34L87.28 11.34L87.28 8.46L93.79 8.46L93.79 11.34ZM100.60 16.38L96.88 16.38L96.88 0.28L100.60 0.28L100.60 16.38ZM111.73 16.38L104.42 16.38L104.42 0.28L111.73 0.28Q114.36 0.28 116.36 1.28Q118.36 2.28 119.48 4.07Q120.61 5.87 120.61 8.33L120.61 8.33Q120.61 10.76 119.48 12.57Q118.36 14.38 116.36 15.38Q114.36 16.38 111.73 16.38L111.73 16.38ZM108.15 3.34L108.15 13.32L111.55 13.32Q113.16 13.32 114.34 12.71Q115.53 12.10 116.18 10.97Q116.84 9.84 116.84 8.33L116.84 8.33Q116.84 6.79 116.18 5.67Q115.53 4.55 114.34 3.94Q113.16 3.34 111.55 3.34L111.55 3.34L108.15 3.34Z"></path></svg>